# xmcd CD database file
#
# Track frame offsets:
#	150
#	14626
#	27770
#	42863
#	53372
#	65489
#	77121
#	90513
#	102315
#	120496
#	136429
#	148070
#	166403
#	179262
#	190998
#	205905
#
# Disc length: 2957 seconds
#
# Revision: 4
# Processed by: cddbd v1.5.2PL0 Copyright (c) Steve Scherf et al.
# Submitted via: CDex 1.84
#
DISCID=d80b8b10
DTITLE=Various Artist - Die Mega Pop Box  ( CD 2 )
DYEAR=1998
DGENRE=Oldies
TTITLE0=Tony Christie - Is This The Way To Amarillo
TTITLE1=The Small Faces - Sha La La La Lee
TTITLE2=The Mamas and The Papas - Monday, Monday
TTITLE3=Louis Armstrong - What A Wonderful World
TTITLE4=Desmond Dekker and The Aces - You Can Get It If You Really Want
TTITLE5=Cher - Gypsys, Tramps and Thieves
TTITLE6=Daniel Boone - Beautiful Sunday
TTITLE7=Gilbert O'sullivan - Get Down
TTITLE8=The Hollies - The Air That I Breathe
TTITLE9=Pilot - January
TTITLE10=Crystal Gayle - Don't It Make My Brown Eyes Blue
TTITLE11=Gerry Rafferty - Baker Street
TTITLE12=Dr. Hook - When You're In Love With A Beautiful Woman
TTITLE13=Uriah Heep - Easy Livin'
TTITLE14=Johnny Wakelin - In Zaire
TTITLE15=Barry Mcguire - Eve Of Destruction
EXTD=YEAR: 1998
EXTT0=
EXTT1=
EXTT2=
EXTT3=
EXTT4=
EXTT5=
EXTT6=
EXTT7=
EXTT8=
EXTT9=
EXTT10=
EXTT11=
EXTT12=
EXTT13=
EXTT14=
EXTT15=
PLAYORDER=
